<svg aria-hidden="true" style="position: absolute; width: 0; height: 0; overflow: hidden;" version="1.1" xmlns="http://www.w3.org/2000/svg" xmlns:xlink="http://www.w3.org/1999/xlink">
<defs>
<symbol id="icon-website" viewBox="0 0 32 32">
<path d="M16 1.28c-6.788 0-12.515 4.62-14.209 10.88h1.335c0.479-1.601 1.255-3.073 2.254-4.364 1.093 0.616 2.358 1.131 3.756 1.527-0.233 0.896-0.426 1.841-0.561 2.836h1.305c0.13-0.881 0.307-1.721 0.518-2.52 1.543 0.34 3.211 0.541 4.963 0.581v1.939h1.28v-1.939c1.752-0.040 3.42-0.24 4.962-0.58 0.21 0.798 0.388 1.638 0.517 2.519h1.305c-0.135-0.995-0.328-1.94-0.561-2.836 1.399-0.397 2.663-0.911 3.756-1.527 0.998 1.291 1.775 2.762 2.254 4.364h1.335c-1.693-6.26-7.42-10.88-14.209-10.88zM15.36 2.638v6.304c-1.627-0.040-3.174-0.227-4.599-0.536 1.050-3.149 2.718-5.353 4.599-5.768zM16.64 2.638c1.881 0.414 3.549 2.619 4.599 5.768-1.424 0.309-2.972 0.496-4.599 0.536v-6.304zM12.245 3.106c-1.127 1.188-2.070 2.904-2.75 4.984-1.224-0.346-2.326-0.781-3.272-1.289 1.621-1.724 3.692-3.014 6.022-3.695zM19.755 3.106c2.331 0.681 4.401 1.971 6.023 3.695-0.946 0.507-2.049 0.943-3.273 1.289-0.68-2.080-1.623-3.796-2.75-4.984zM1.92 13.44l1.625 5.12h1.491l1.353-3.828 1.356 3.828h1.459l1.654-5.12h-1.385l-1.045 3.576-1.194-3.576h-1.635l-1.245 3.516-1.026-3.516h-1.407zM11.531 13.44l1.626 5.12h1.491l1.351-3.828 1.356 3.828h1.459l1.654-5.12h-1.385l-1.045 3.576-1.194-3.576h-1.635l-1.245 3.516-1.026-3.516h-1.408zM21.109 13.44l1.633 5.12h1.496l1.357-3.828 1.361 3.828h1.464l1.66-5.12h-1.39l-1.049 3.576-1.198-3.576h-1.641l-1.25 3.516-1.031-3.516h-1.413zM1.791 19.84c1.693 6.26 7.42 10.88 14.209 10.88s12.515-4.62 14.209-10.88h-1.335c-0.479 1.601-1.255 3.073-2.254 4.364-1.093-0.616-2.358-1.131-3.756-1.527 0.233-0.896 0.426-1.841 0.561-2.836h-1.305c-0.13 0.881-0.307 1.721-0.517 2.52-1.543-0.34-3.211-0.541-4.963-0.581v-1.939h-1.28v1.939c-1.752 0.040-3.42 0.24-4.963 0.58-0.21-0.798-0.388-1.638-0.518-2.519h-1.305c0.135 0.995 0.328 1.94 0.561 2.836-1.399 0.397-2.663 0.911-3.756 1.527-0.998-1.291-1.775-2.762-2.254-4.364h-1.335zM15.36 23.059v6.304c-1.88-0.414-3.549-2.619-4.599-5.768 1.424-0.309 2.972-0.496 4.599-0.536zM16.64 23.059c1.627 0.040 3.174 0.227 4.599 0.536-1.050 3.149-2.718 5.353-4.599 5.767v-6.304zM9.496 23.91c0.68 2.080 1.622 3.796 2.749 4.984-2.331-0.681-4.401-1.971-6.022-3.695 0.946-0.508 2.050-0.943 3.274-1.289zM22.505 23.91c1.224 0.346 2.326 0.781 3.273 1.289-1.621 1.724-3.692 3.014-6.023 3.695 1.127-1.188 2.070-2.904 2.75-4.984z"></path>
</symbol>
<symbol id="icon-github" viewBox="0 0 32 32">
<path d="M16 0.395c-8.836 0-16 7.163-16 16 0 7.069 4.585 13.067 10.942 15.182 0.8 0.148 1.094-0.347 1.094-0.77 0-0.381-0.015-1.642-0.022-2.979-4.452 0.968-5.391-1.888-5.391-1.888-0.728-1.849-1.776-2.341-1.776-2.341-1.452-0.993 0.11-0.973 0.11-0.973 1.606 0.113 2.452 1.649 2.452 1.649 1.427 2.446 3.743 1.739 4.656 1.33 0.143-1.034 0.558-1.74 1.016-2.14-3.554-0.404-7.29-1.777-7.29-7.907 0-1.747 0.625-3.174 1.649-4.295-0.166-0.403-0.714-2.030 0.155-4.234 0 0 1.344-0.43 4.401 1.64 1.276-0.355 2.645-0.532 4.005-0.539 1.359 0.006 2.729 0.184 4.008 0.539 3.054-2.070 4.395-1.64 4.395-1.64 0.871 2.204 0.323 3.831 0.157 4.234 1.026 1.12 1.647 2.548 1.647 4.295 0 6.145-3.743 7.498-7.306 7.895 0.574 0.497 1.085 1.47 1.085 2.963 0 2.141-0.019 3.864-0.019 4.391 0 0.426 0.288 0.925 1.099 0.768 6.354-2.118 10.933-8.113 10.933-15.18 0-8.837-7.164-16-16-16z"></path>
</symbol>
<symbol id="icon-envelop" viewBox="0 0 32 32">
<path d="M29 4h-26c-1.65 0-3 1.35-3 3v20c0 1.65 1.35 3 3 3h26c1.65 0 3-1.35 3-3v-20c0-1.65-1.35-3-3-3zM12.461 17.199l-8.461 6.59v-15.676l8.461 9.086zM5.512 8h20.976l-10.488 7.875-10.488-7.875zM12.79 17.553l3.21 3.447 3.21-3.447 6.58 8.447h-19.579l6.58-8.447zM19.539 17.199l8.461-9.086v15.676l-8.461-6.59z"></path>
</symbol>
<symbol id="icon-mobile" viewBox="0 0 32 32">
<path d="M23 0h-14c-1.65 0-3 1.35-3 3v26c0 1.65 1.35 3 3 3h14c1.65 0 3-1.35 3-3v-26c0-1.65-1.35-3-3-3zM12 1.5h8v1h-8v-1zM16 30c-1.105 0-2-0.895-2-2s0.895-2 2-2 2 0.895 2 2-0.895 2-2 2zM24 24h-16v-20h16v20z"></path>
</symbol>
<symbol id="icon-telegram" viewBox="0 0 32 32">
<path d="M29.528 4.193c-0.48-0.407-1.234-0.465-2.013-0.152h-0.001c-0.82 0.329-23.207 9.932-24.118 10.324-0.166 0.058-1.613 0.598-1.464 1.801 0.133 1.085 1.297 1.534 1.439 1.586l5.692 1.949c0.378 1.257 1.77 5.894 2.077 6.885 0.192 0.618 0.505 1.429 1.053 1.596 0.481 0.186 0.96 0.016 1.27-0.227l3.48-3.228 5.617 4.381 0.134 0.080c0.381 0.169 0.747 0.253 1.096 0.253 0.269 0 0.528-0.051 0.775-0.152 0.842-0.346 1.178-1.148 1.213-1.238l4.196-21.809c0.256-1.165-0.1-1.757-0.444-2.049zM14.080 20.48l-1.92 5.12-1.92-6.4 14.72-10.88-10.88 12.16z"></path>
</symbol>
<symbol id="icon-in" viewBox="0 0 32 32">
<path d="M25.333 0h-18.667c-3.681 0-6.667 2.985-6.667 6.667v18.667c0 3.681 2.985 6.667 6.667 6.667h18.667c3.683 0 6.667-2.985 6.667-6.667v-18.667c0-3.681-2.984-6.667-6.667-6.667zM10.667 25.333h-4v-14.667h4v14.667zM8.667 8.976c-1.288 0-2.333-1.053-2.333-2.352s1.045-2.352 2.333-2.352 2.333 1.053 2.333 2.352-1.044 2.352-2.333 2.352zM26.667 25.333h-4v-7.472c0-4.491-5.333-4.151-5.333 0v7.472h-4v-14.667h4v2.353c1.861-3.448 9.333-3.703 9.333 3.301v9.012z"></path>
</symbol>
<symbol id="icon-location2" viewBox="0 0 32 32">
<path d="M16 0c-5.523 0-10 4.477-10 10 0 10 10 22 10 22s10-12 10-22c0-5.523-4.477-10-10-10zM16 16.125c-3.383 0-6.125-2.742-6.125-6.125s2.742-6.125 6.125-6.125 6.125 2.742 6.125 6.125-2.742 6.125-6.125 6.125zM12.125 10c0-2.14 1.735-3.875 3.875-3.875s3.875 1.735 3.875 3.875c0 2.14-1.735 3.875-3.875 3.875s-3.875-1.735-3.875-3.875z"></path>
</symbol>
</defs>
</svg>


